# xmcd
#
# Track frame offsets:
#	150
#	42194
#	57922
#	105821
#	122740
#	150611
#	182827
#	212461
#	234308
#	246910
#	256861
#	275309
#
# Disc length: 4346
#
# Revision: 2
# Processed by: cddbd v1.5.1PL0 Copyright (c) Steve Scherf et al.
# Submitted via: audiograbber 1.80.04
# Normalized: r1:DSETVAR1
#
DISCID=9510f80c
DTITLE=Various Artist - A Soul Train to Trane
DYEAR=1900
DGENRE=Soul
TTITLE0=Julian "Canonball" Adderley - This here
TTITLE1=Quincy Jones - Watermelon man
TTITLE2=Gearge Benson - Whichcraft
TTITLE3=Donald Byrd - Prophecy
TTITLE4=Donald Byrd and Herbie Hancock - Bird house
TTITLE5=Freddie Hubbard and Yusef Lateef - Flutie
TTITLE6=Herbie Hancock - Rock your soul
TTITLE7=Clark Terry and Miles Davis - Stop, look and listen
TTITLE8=Eddie Harris - Moonglow
TTITLE9=Eddie Harris - Secret Love
TTITLE10=Art Pepper - Long ago and far away
TTITLE11=John Coltrane - Man made miles
EXTD=
EXTT0=
EXTT1=
EXTT2=
EXTT3=
EXTT4=
EXTT5=
EXTT6=
EXTT7=
EXTT8=
EXTT9=
EXTT10=
EXTT11=
PLAYORDER=
